<?xml version="1.0" encoding="UTF-8" standalone="no"?>
<svg xmlns="http://www.w3.org/2000/svg" viewBox="0 0 18 18">
    <defs id="defs5252">
        <linearGradient id="fe5ed3b3-9c39-4295-8c7e-8b1e63bf12a9-313dd146" x1="14" y1="0" x2="0" y2="18" gradientUnits="userSpaceOnUse">
            <stop style="stop-color:#0090c7" offset=".3"/>
            <stop style="stop-color:#50e6ff" offset=".6"/>
        </linearGradient>
    </defs>
  
    <path d="m 5.44946,13.27559 -0.6,0.6 a 0.3,0.3 0 0 1 -0.4,0 l -4.3,-4.3000004 a 0.61,0.61 0 0 1 0,-0.8 l 0.5,-0.6 v 0 l 4.8,4.8000004 c 0,0.1 0.1,0.2 0,0.3 z" style="fill:#50e6ff"/>
    <path d="m 4.74946,4.4755896 0.6,0.6 a 0.3,0.3 0 0 1 0,0.4 l -4.6,4.6000004 v 0 l -0.6,-0.6000004 a 0.61,0.61 0 0 1 0,-0.8 v 0 l 4.3,-4.3 a 0.37,0.37 0 0 1 0.3,0.1 z" style="fill:#1490df"/>
    <path d="m 17.24946,8.1755896 0.6,0.6 a 0.61,0.61 0 0 1 0,0.8 l -4.4,4.4000004 a 0.3,0.3 0 0 1 -0.4,0 v 0 l -0.6,-0.6 a 0.3,0.3 0 0 1 0,-0.4 v 0 z" style="fill:#50e6ff" />
    <path d="m 17.74946,9.4755896 -0.6,0.6000004 v 0 l -4.7,-4.7000004 a 0.3,0.3 0 0 1 0,-0.4 v 0 l 0.6,-0.6 a 0.3,0.3 0 0 1 0.4,0 v 0 l 4.3,4.3 a 0.61,0.61 0 0 1 0,0.8 z" style="fill:#1490df" />
    <path d="m 10.82433,1.4083996 c 0.057,-0.15625 0.12738,-0.23281 0.25078,-0.23281 h 1.82435 c 0.11809,0.005 0.28445,0.0272 0.20781,0.2586 C 11.1832,6.5385496 9.30115,11.57923 7.38159,16.68533 c 0,0 -0.0712,0.17214 -0.13781,0.21716 -0.0666,0.045 -0.17113,0.0389 -0.17113,0.0389 l -1.8913,-0.002 c 0,0 -0.065,-0.0347 -0.084,-0.0818 -0.0191,-0.047 0.0115,-0.15241 0.0115,-0.15241 z" 
          style="opacity:1;fill:url(#fe5ed3b3-9c39-4295-8c7e-8b1e63bf12a9-313dd146);    stroke: #004081;
    stroke-width:.2px;" />
</svg>
